<svg width="88" height="88" viewBox="0 0 88 88" fill="none" xmlns="http://www.w3.org/2000/svg">
<g clip-path="url(#clip0_1_112)">
<path d="M43.919 0C19.7716 0 0 19.7716 0 43.919C0 68.0663 19.7716 87.8379 43.919 87.8379C68.0663 87.8379 87.8379 68.0663 87.8379 43.919C87.8379 19.7716 68.3904 0 43.919 0ZM43.919 80.7072C34.0331 80.7072 24.7956 76.8177 17.989 70.011C16.5304 68.5525 16.5304 66.2836 17.989 64.825L28.8471 53.9668C27.0645 51.0497 25.93 47.6464 25.93 44.081C25.93 34.0331 34.0331 25.93 43.919 25.93C53.8048 25.93 61.9079 34.0331 61.9079 43.919C61.9079 53.8048 53.8048 61.9079 43.919 61.9079C40.3536 61.9079 36.7882 60.7735 34.0331 58.9908L25.93 67.0939C31.116 71.1455 37.4365 73.2523 43.919 73.2523C60.1252 73.2523 73.2523 60.1252 73.2523 43.919C73.2523 27.7127 60.1252 14.5856 43.919 14.5856C27.7127 14.5856 14.5856 27.8748 14.5856 43.919C14.5856 46.0258 12.965 47.6464 10.8582 47.6464C8.75138 47.6464 7.13075 46.0258 7.13075 43.919C7.13075 23.6611 23.6611 7.13075 43.919 7.13075C64.1768 7.13075 80.7072 23.6611 80.7072 43.919C80.7072 64.3389 64.3389 80.7072 43.919 80.7072Z" fill="black"/>
<path d="M54.6151 43.919C54.6151 49.7532 49.9153 54.6151 43.919 54.6151C37.9227 54.6151 33.2228 49.9153 33.2228 43.919C33.2228 37.9227 37.9227 33.2228 43.919 33.2228C49.9153 33.2228 54.6151 38.0847 54.6151 43.919Z" fill="black"/>
</g>
<defs>
<clipPath id="clip0_1_112">
<rect width="88" height="88" fill="white"/>
</clipPath>
</defs>
</svg>
