<?xml version="1.0" encoding="UTF-8"?>
<svg id="Layer_1" data-name="Layer 1" xmlns="http://www.w3.org/2000/svg" viewBox="0 0 787.95 763.72">
  <defs>
    <style>
      .cls-1 {
        fill-rule: evenodd;
        stroke-width: 0px;
      }
    </style>
  </defs>
  <path class="cls-1" d="M345.51,319.06h274.02l147.18-166.22-421.21,166.22ZM0,404.79l273.76,322.55-3.42-375.89L0,404.79ZM349.62,0l-47.71,316.32,435.38-201.32L349.62,0ZM293.86,36.98L9.81,354.92l263.96-34.32,20.1-283.62ZM471.24,620.25l221,72.83-75.56-325.5-145.43,252.66ZM295.41,387.24l20.03,363.43,118.05-124.48-138.08-238.95ZM634.96,340.68l87.38,306.33,65.61-452.47-152.99,146.14ZM453.38,640.53l-96.01,123.19,309.51-38.13-213.5-85.06Z"/>
</svg>