<?xml version="1.0" encoding="utf-8"?>
<!-- Generator: Adobe Illustrator 28.2.0, SVG Export Plug-In . SVG Version: 6.00 Build 0)  -->
<svg version="1.1" id="Layer_1" xmlns="http://www.w3.org/2000/svg" xmlns:xlink="http://www.w3.org/1999/xlink" x="0px" y="0px"
	 viewBox="0 0 71.3 71.3" style="enable-background:new 0 0 71.3 71.3;" xml:space="preserve">
<g id="_33across_Logo_white">
	<g id="Group_234">
		<g id="Group_228">
			<path id="Path_34" d="M76.6,51.3"/>
		</g>
	</g>
	<g id="Group_235">
		<path id="Path_35" d="M30.5,35c2.1-1,2.7-2.3,2.7-6c0-7-3.8-8.2-12.7-8.2h-5.6c-10.2,0-14.6,0.8-14.6,8.8V32h9.5v-2
			c0-1.2,0-1.7,2.7-1.7h8.2c2.7,0,2.9,0.7,2.9,1.8c0,1.3,0,1.8-2.3,1.8h-8.6V39h9.4c2.1,0,2.1,0.5,2.1,1.8c0,1.4,0,1.7-2,1.7h-9.9
			c-2.6,0-2.7-0.4-2.7-2v-2H0V42c0,5.1,3.3,7.7,9.7,7.7h13.8c7.6,0,10.2-2,10.2-8.1C33.7,38,33.2,36.2,30.5,35L30.5,35z"/>
		<path id="Path_36" d="M67.4,35c2.1-1,2.7-2.3,2.7-6c0-7-3.8-8.2-12.7-8.2h-5.5c-10.1,0-14.5,0.8-14.5,8.8V32h9.5v-2
			c0-1.2,0-1.7,2.7-1.7h8.2c2.7,0,2.9,0.7,2.9,1.8c0,1.3,0,1.8-2.3,1.8h-8.6V39h9.4c2.1,0,2.1,0.5,2.1,1.8c0,1.4,0,1.7-2,1.7h-9.9
			c-2.6,0-2.7-0.4-2.7-2v-2h-9.6V42c0,5.1,3.3,7.7,9.7,7.7h13.8c7.6,0,10.2-2,10.2-8.1C70.7,38,70.1,36.2,67.4,35L67.4,35z"/>
	</g>
</g>
</svg>
