<?xml version="1.0" encoding="utf-8"?>
<!-- Generator: Adobe Illustrator 28.2.0, SVG Export Plug-In . SVG Version: 6.00 Build 0)  -->
<svg version="1.1" id="Layer_1" xmlns="http://www.w3.org/2000/svg" xmlns:xlink="http://www.w3.org/1999/xlink" x="0px" y="0px"
	 viewBox="0 0 442.3 457.9" style="enable-background:new 0 0 442.3 457.9;" xml:space="preserve">
<style type="text/css">
	.st0{fill:#80D0D7;fill-opacity:0.88;}
	.st1{fill:#076B9C;}
	.st2{fill:#94C165;}
</style>
<path class="st0" d="M250.2,147.3c0,0,5.7,18.3-1,42.2c0,0,45.6-22.3,79.4-23.8c0,0-25.8-7.2-62.6,3.6
	C265.9,169.4,256.6,151.8,250.2,147.3z"/>
<path class="st0" d="M283.9,291.5c0,0-16-10.5-26-33.3c0,0-21.1,46.2-46.2,68.8c0,0,24.5-10.8,46-42.5
	C257.7,284.5,276,292.2,283.9,291.5z"/>
<path class="st0" d="M171.9,191.4c0,0,19.4,0.4,41.4,14.2c0,0-11.1-50.2-4.4-82.6c0,0-13.3,22.2-11.5,60.3
	C197.5,183.4,177.9,186.7,171.9,191.4z"/>
<path class="st0" d="M325.7,201.5c0,0-17.4,8.6-43.3,6.5c0,0,33,39.4,42,71.2c0,0,1.6-25.8-17.6-58.8
	C306.7,220.4,322.6,208.5,325.7,201.5z"/>
<path class="st0" d="M192.5,281.2c0,0,4.9-18,23.9-34.4c0,0-52.7-4.4-83.5-20.2c0,0,19,19,57.6,28.5
	C190.4,255.1,189.1,274.3,192.5,281.2z"/>
<path class="st1" d="M269.6,95.1c0,0,7.8,26.1-2.2,60.6c0,0,65.5-32.8,113.6-35.5c0,0-36.7-9.9-89.3,6.3
	C291.7,126.4,278.8,101.4,269.6,95.1z"/>
<path class="st1" d="M299.3,339.9c0,0-22.4-15.3-36.4-48.2c0,0-29.4,66.9-64.5,99.5c0,0,34.3-15.6,64.2-61.5
	C262.7,329.7,288.4,340.8,299.3,339.9z"/>
<path class="st1" d="M127.2,155c0,0,27.7,0.6,59.1,20.5c0,0-16.1-71.7-6.8-117.8c0,0-18.9,31.6-16,86
	C163.5,143.7,135.6,148.3,127.2,155z"/>
<path class="st1" d="M381,211c0,0-24.8,12.2-61.9,9c0,0,47.3,56.2,60.3,101.4c0,0,2.2-36.7-25.4-83.7C354,237.8,376.6,220.9,381,211
	z"/>
<path class="st1" d="M148.1,310.5c0,0,7.1-25.6,34.2-49c0,0-75.3-6.1-119.2-28.4c0,0,27.1,26.9,82.2,40.3
	C145.3,273.3,143.4,300.6,148.1,310.5z"/>
<path class="st2" d="M295.3,39.2c0,0,8.9,29.6-2.4,68.6c0,0,74.1-37.1,128.7-40c0,0-41.6-11.3-101.2,6.9
	C320.4,74.7,305.6,46.3,295.3,39.2z"/>
<path class="st2" d="M313.8,399.4c0,0-25.2-17.3-40.9-54.5c0,0-33,75.7-72.5,112.5c0,0,38.5-17.7,72.3-69.5
	C272.7,387.9,301.5,400.5,313.8,399.4z"/>
<path class="st2" d="M79.8,113.3c0,0,31,0.7,66.3,23.1c0,0-18.1-80.5-7.7-132.3c0,0-21.1,35.4-17.9,96.6
	C120.5,100.6,89.3,105.8,79.8,113.3z"/>
<path class="st2" d="M442.3,226.2c0,0-27.9,13.7-69.5,10.1c0,0,53.2,63.1,67.8,113.9c0,0,2.4-41.2-28.6-93.9
	C412,256.2,437.4,237.3,442.3,226.2z"/>
<path class="st2" d="M95.4,342.4c0,0,8-28.7,38.5-55c0,0-84.6-6.8-133.9-31.8c0,0,30.5,30.1,92.3,45.1
	C92.3,300.7,90.1,331.3,95.4,342.4z"/>
</svg>
