<?xml version="1.0" encoding="utf-8"?>
<!-- Generator: Adobe Illustrator 28.2.0, SVG Export Plug-In . SVG Version: 6.00 Build 0)  -->
<svg version="1.1" id="logo_rviki_line2" xmlns="http://www.w3.org/2000/svg" xmlns:xlink="http://www.w3.org/1999/xlink" x="0px"
	 y="0px" viewBox="0 0 66.2 36.6" style="enable-background:new 0 0 66.2 36.6;" xml:space="preserve">
<style type="text/css">
	.st0{fill:#0C9BFF;}
</style>
<g id="logo_rviki_line2-2">
	<g>
		<g>
			<g>
				<polygon class="st0" points="53.3,16.4 13.5,16.4 16.6,19.6 				"/>
				<path class="st0" d="M17.1,3.6v0.5c-0.7-0.5-1.4-0.8-2.3-0.8C12,3.3,9.9,5.9,9.9,9s2.1,5.7,4.9,5.7c0.9,0,1.6-0.3,2.3-0.8v0.5
					h2.5V3.6L17.1,3.6L17.1,3.6z M14.8,12.1c-1.4,0-2.4-1.4-2.4-3.1s1-3.1,2.4-3.1s2.3,1.4,2.3,3.1S16.2,12.1,14.8,12.1z"/>
				<path class="st0" d="M36.8,3.6V10c0,1.2-0.8,2.2-2,2.2s-2-1-2-2.2V3.6h-2.5V10c0,2.6,1.8,4.7,4.4,4.7c1.2,0,2.1-0.7,2.1-0.7v0.4
					h2.5V3.6C39.3,3.6,36.8,3.6,36.8,3.6z"/>
				<path class="st0" d="M59.7,14.4V8c0-1.2,0.8-2.2,2-2.2s2,1,2,2.2v6.4h2.5V8c0-2.6-1.8-4.7-4.4-4.7c-1.2,0-2.1,0.7-2.1,0.7V3.6
					h-2.5v10.8C57.2,14.4,59.7,14.4,59.7,14.4z"/>
				<path class="st0" d="M2.8,14.4v-4.2h1.8l3.1,4.2H11L7.2,9.3c1.2-0.9,2-2.2,2-3.8c0-2.6-2.1-4.7-4.7-4.7H0.3v13.5L2.8,14.4
					L2.8,14.4z M2.8,3.4h1.7c1.1,0,2.1,0.9,2.1,2.1S5.7,7.6,4.5,7.6H2.8C2.8,7.6,2.8,3.4,2.8,3.4z"/>
				<path class="st0" d="M45.9,11.8c-0.2,0.1-0.5,0.3-0.8,0.3c-0.4,0-1.2-0.3-1.2-1.3V6.2H46V3.6h-2.1V0.9h-2.5v2.7h-1.3v2.6h1.3
					v4.7c0,2.4,1.8,3.9,3.7,3.9c0.7,0,1.6-0.2,2.4-0.7L45.9,11.8L45.9,11.8z"/>
				<polygon class="st0" points="25.7,8.7 29.9,3.6 26.5,3.6 23.5,7.4 23.5,0 21,0 21,14.4 23.5,14.4 23.5,10 27.2,14.4 30.6,14.4 
									"/>
				<path class="st0" d="M51.6,3.3c-2.8,0-4.9,2.5-4.9,5.7c0,3.4,2.6,5.7,5.1,5.7c1.3,0,2.9-0.4,4.3-2.4L54,11
					c-1.7,2.5-4.5,1.2-4.8-1.2h7.1C56.9,5.9,54.3,3.3,51.6,3.3L51.6,3.3z M53.7,7.6h-4.4C49.8,5.1,53.2,4.9,53.7,7.6z"/>
			</g>
			<g>
				<path class="st0" d="M12.1,24L8.2,36.3c0,0.2-0.2,0.3-0.4,0.3H4.3c-0.2,0-0.3-0.1-0.4-0.3L0,24c0-0.1,0.1-0.3,0.2-0.3h3.1
					c0.2,0,0.3,0.1,0.4,0.3l2.4,8.8c0,0.1,0.1,0.1,0.2,0L8.6,24c0-0.2,0.2-0.3,0.4-0.3h2.9C12,23.7,12.1,23.9,12.1,24L12.1,24z"/>
				<path class="st0" d="M15,25.2c-0.6,0-1-0.2-1.4-0.5s-0.6-0.8-0.6-1.4s0.2-1,0.6-1.4c0.4-0.4,0.9-0.5,1.4-0.5s1,0.2,1.4,0.5
					s0.6,0.8,0.6,1.4s-0.2,1-0.6,1.4C16.1,25,15.6,25.2,15,25.2z M13.3,36.3v-9.8c0-0.2,0.1-0.3,0.3-0.3h2.8c0.2,0,0.3,0.1,0.3,0.3
					v9.8c0,0.2-0.1,0.3-0.3,0.3h-2.8C13.5,36.6,13.3,36.4,13.3,36.3z"/>
				<path class="st0" d="M18.3,36.3V22.6c0-0.2,0.1-0.3,0.3-0.3h2.8c0.2,0,0.3,0.1,0.3,0.3v7.2c0,0.1,0.1,0.1,0.2,0l2.3-3.4
					c0.1-0.2,0.3-0.2,0.5-0.2h3.4c0.1,0,0.2,0.1,0.1,0.2l-3.3,4.3c-0.1,0.1-0.1,0.3,0,0.5l3.9,5.2c0.1,0.1,0,0.2-0.1,0.2h-3.6
					c-0.2,0-0.4-0.1-0.5-0.2L22,32.6c0-0.1-0.2,0-0.2,0v3.6c0,0.2-0.1,0.3-0.3,0.3h-2.8C18.5,36.6,18.4,36.4,18.3,36.3L18.3,36.3z"
					/>
				<path class="st0" d="M31.4,25.2c-0.6,0-1-0.2-1.4-0.5s-0.6-0.8-0.6-1.4s0.2-1,0.6-1.4c0.4-0.4,0.8-0.5,1.4-0.5s1,0.2,1.4,0.5
					s0.6,0.8,0.6,1.4s-0.2,1-0.6,1.4C32.5,25,32,25.2,31.4,25.2z M29.7,36.3v-9.8c0-0.2,0.1-0.3,0.3-0.3h2.8c0.2,0,0.3,0.1,0.3,0.3
					v9.8c0,0.2-0.1,0.3-0.3,0.3H30C29.9,36.6,29.7,36.4,29.7,36.3z"/>
			</g>
		</g>
	</g>
</g>
</svg>
