<svg width="42" height="42" viewBox="0 0 42 42" fill="none" xmlns="http://www.w3.org/2000/svg">
<path d="M21 42C15.1667 42 10.2083 39.9583 6.125 35.875C2.04167 31.7917 0 26.8333 0 21C0 15.1667 2.04167 10.2083 6.125 6.125C10.2083 2.04167 15.1667 -4.76837e-07 21 -4.76837e-07C21.5444 -4.76837e-07 22.0792 0.019444 22.6042 0.0583329C23.1292 0.0972217 23.6444 0.155555 24.15 0.233333C22.5556 1.36111 21.2819 2.82917 20.3292 4.6375C19.3764 6.44583 18.9 8.4 18.9 10.5C18.9 14 20.125 16.975 22.575 19.425C25.025 21.875 28 23.1 31.5 23.1C33.6389 23.1 35.6028 22.6236 37.3917 21.6708C39.1806 20.7181 40.6389 19.4444 41.7667 17.85C41.8444 18.3556 41.9028 18.8708 41.9417 19.3958C41.9806 19.9208 42 20.4556 42 21C42 26.8333 39.9583 31.7917 35.875 35.875C31.7917 39.9583 26.8333 42 21 42ZM21 37.3333C24.4222 37.3333 27.4944 36.3903 30.2167 34.5042C32.9389 32.6181 34.9222 30.1583 36.1667 27.125C35.3889 27.3194 34.6111 27.475 33.8333 27.5917C33.0556 27.7083 32.2778 27.7667 31.5 27.7667C26.7167 27.7667 22.6431 26.0847 19.2792 22.7208C15.9153 19.3569 14.2333 15.2833 14.2333 10.5C14.2333 9.72222 14.2917 8.94444 14.4083 8.16667C14.525 7.38889 14.6806 6.61111 14.875 5.83333C11.8417 7.07778 9.38194 9.06111 7.49583 11.7833C5.60972 14.5056 4.66667 17.5778 4.66667 21C4.66667 25.5111 6.26111 29.3611 9.45 32.55C12.6389 35.7389 16.4889 37.3333 21 37.3333Z" fill="#1C1B1F"/>
</svg>
