<svg width="162" height="135" viewBox="0 0 162 135" fill="none" xmlns="http://www.w3.org/2000/svg">
<path d="M45 26.4L66.022 18L87.044 26.4L66.022 34.8L45 26.4Z" stroke="black" stroke-width="4" stroke-linejoin="round"/>
<path d="M87.044 26.51V35.733M54.556 30.825V43.267C54.556 43.267 59.366 48 66.022 48C72.679 48 77.489 43.267 77.489 43.267V30.825" stroke="black" stroke-width="4" stroke-linecap="round" stroke-linejoin="round"/>
<path d="M73 19.4L94.022 11L115.044 19.4L94.022 27.8L73 19.4Z" stroke="black" stroke-width="4" stroke-linejoin="round"/>
<path d="M115.044 19.51V28.733M82.556 23.825V36.267C82.556 36.267 87.366 41 94.022 41C100.679 41 105.489 36.267 105.489 36.267V23.825" stroke="black" stroke-width="4" stroke-linecap="round" stroke-linejoin="round"/>
<path d="M42.51 65V59.104H43.878L45.486 63.032L47.094 59.104H48.462V65H47.254V61.336L45.806 64.872H45.166L43.718 61.328V65H42.51ZM50.7188 65L49.8308 64.112V63.216L50.7188 62.328H52.7268V62.008L52.4068 61.688H50.3588V60.824H53.0708L53.9588 61.712V65H52.7268V64.408L52.1428 65H50.7188ZM51.3748 64.216H51.9668L52.7268 63.456V63.072H51.3748L51.0548 63.384L51.0628 63.904L51.3748 64.216ZM55.5568 65V64.088H57.7808L58.0528 63.816V63.6L57.7568 63.296H56.1728L55.3408 62.504V61.608L56.1648 60.824H58.8448V61.728H56.7968L56.5488 61.992V62.144L56.8368 62.44H58.4368L59.2688 63.224V64.208L58.4448 65H55.5568ZM61.5449 65L60.7129 64.216V61.656H60.4009V60.824H60.7609L61.1129 59.712H61.9449V60.824H62.6409V61.656H61.9449V63.848L62.2169 64.128H62.8249V65H61.5449ZM64.895 65L64.007 64.112V61.712L64.895 60.824H67.023L67.919 61.712V63.28H65.239V63.76L65.559 64.08L67.847 64.072V65H64.895ZM65.231 62.472H66.751V61.928L66.431 61.608L65.559 61.616L65.231 61.928V62.472ZM69.4623 65V60.816H70.6943V61.512L71.4223 60.824H72.3103V61.976H71.2383L70.6943 62.496V65H69.4623ZM73.3267 61.112L73.6227 59.104H74.8467L74.0787 61.112H73.3267ZM76.3772 65V64.088H78.6012L78.8732 63.816V63.6L78.5772 63.296H76.9932L76.1612 62.504V61.608L76.9852 60.824H79.6652V61.728H77.6172L77.3692 61.992V62.144L77.6572 62.44H79.2572L80.0892 63.224V64.208L79.2652 65H76.3772ZM83.9633 65V59.104H87.5873L88.8193 60.336V63.768L87.5873 65H83.9633ZM85.2113 63.992H87.0273L87.5953 63.424V60.672L87.0273 60.112H85.2113V63.992ZM91.0747 65L90.1867 64.112V61.712L91.0747 60.824H93.2027L94.0987 61.712V63.28H91.4187V63.76L91.7387 64.08L94.0267 64.072V65H91.0747ZM91.4107 62.472H92.9307V61.928L92.6107 61.608L91.7387 61.616L91.4107 61.928V62.472ZM95.882 66.496V65.592H98.234L98.554 65.28V64.424L97.93 65H96.434L95.546 64.112V61.712L96.434 60.816H97.93L98.554 61.4V60.824H99.738V65.6L98.85 66.496H95.882ZM97.754 64.2L98.554 63.448V62.368L97.762 61.624L97.026 61.616L96.754 61.904V63.92L97.026 64.2H97.754ZM101.361 65V60.816H102.593V61.512L103.321 60.824H104.209V61.976H103.137L102.593 62.496V65H101.361ZM106.051 65L105.163 64.112V61.712L106.051 60.824H108.179L109.075 61.712V63.28H106.395V63.76L106.715 64.08L109.003 64.072V65H106.051ZM106.387 62.472H107.907V61.928L107.587 61.608L106.715 61.616L106.387 61.928V62.472ZM111.411 65L110.523 64.112V61.712L111.411 60.824H113.539L114.435 61.712V63.28H111.755V63.76L112.075 64.08L114.363 64.072V65H111.411ZM111.747 62.472H113.267V61.928L112.947 61.608L112.075 61.616L111.747 61.928V62.472ZM116.01 65V64.088H118.234L118.506 63.816V63.6L118.21 63.296H116.626L115.794 62.504V61.608L116.618 60.824H119.298V61.728H117.25L117.002 61.992V62.144L117.29 62.44H118.89L119.722 63.224V64.208L118.898 65H116.01Z" fill="black"/>
<path d="M78.6956 69.1V68.51H79.1356V69.1H78.6956ZM78.6956 72V69.385H79.1356V72H78.6956ZM80.4505 72V69.385H80.8905V69.855L81.3455 69.385H82.3105L82.8305 69.91V72H82.3905V70.02L82.1255 69.735H81.4605L80.8905 70.315V72H80.4505Z" fill="black"/>
<path d="M41.1444 81L40.2564 80.112V75.992L41.1444 75.104H44.0484L44.9044 75.952L44.1124 76.712L43.4964 76.112H41.8244L41.5044 76.424V79.672L41.8244 79.992H43.5604L44.1684 79.392L44.9604 80.152L44.1124 81H41.1444ZM47.0512 81L46.1632 80.112V77.712L47.0512 76.824H49.3952L50.2912 77.712V80.112L49.3952 81H47.0512ZM47.7072 80.208H48.7392L49.0592 79.888L49.0512 77.928L48.7392 77.608L47.7072 77.616L47.3872 77.928L47.3952 79.888L47.7072 80.208ZM51.8061 81V76.816H53.0381V77.472L53.7661 76.816H55.2301L55.9341 77.528L56.7261 76.816H58.1901L59.0781 77.712V81H57.8461V77.928L57.5421 77.616H56.9101L56.1181 78.336V81H54.8861V77.928L54.5821 77.616H53.9501L53.0381 78.456V81H51.8061ZM60.642 82.496V76.824H61.874V77.376L62.466 76.816H63.97L64.858 77.712V80.112L63.97 81H62.474L61.874 80.448V82.496H60.642ZM62.642 80.2H63.378L63.65 79.92V77.904L63.378 77.616L62.642 77.624L61.874 78.344V79.48L62.642 80.2ZM67.2084 81L66.3204 80.112V76.824H67.5524L67.5444 79.88L67.8564 80.208H68.4244L69.2484 79.44V76.824H70.4804V81H69.2484V80.416L68.6004 81H67.2084ZM72.959 81L72.127 80.216V77.656H71.815V76.824H72.175L72.527 75.712H73.359V76.824H74.055V77.656H73.359V79.848L73.631 80.128H74.239V81H72.959ZM76.309 81L75.421 80.112V77.712L76.309 76.824H78.437L79.333 77.712V79.28H76.653V79.76L76.973 80.08L79.261 80.072V81H76.309ZM76.645 78.472H78.165V77.928L77.845 77.608L76.973 77.616L76.645 77.928V78.472ZM80.8764 81V76.816H82.1084V77.512L82.8364 76.824H83.7244V77.976H82.6524L82.1084 78.496V81H80.8764ZM87.3308 81V79.944H90.3308L90.6428 79.624V78.8L90.3308 78.48L88.0028 78.488L87.1148 77.592V75.992L88.0028 75.104H91.5628V76.16H88.6668L88.3548 76.48V77.128L88.6668 77.448H90.9948L91.8828 78.336V80.112L90.9948 81H87.3308ZM94.1372 81L93.2492 80.112V77.712L94.1372 76.824H96.3452L97.1692 77.6V78.4H95.9372V77.928L95.6252 77.608L94.7932 77.616L94.4732 77.928L94.4812 79.76L94.7932 80.08L97.1052 80.072V81H94.1372ZM98.5717 76.36V75.304H99.8037V76.36H98.5717ZM98.5717 81V76.816H99.8037V81H98.5717ZM102.215 81L101.327 80.112V77.712L102.215 76.824H104.343L105.239 77.712V79.28H102.559V79.76L102.879 80.08L105.167 80.072V81H102.215ZM102.551 78.472H104.071V77.928L103.751 77.608L102.879 77.616L102.551 77.928V78.472ZM106.783 81V76.816H108.015V77.472L108.743 76.816H110.207L111.095 77.712V81H109.863V77.928L109.559 77.616H108.927L108.015 78.456V81H106.783ZM113.45 81L112.562 80.112V77.712L113.45 76.824H115.658L116.482 77.6V78.4H115.25V77.928L114.938 77.608L114.106 77.616L113.786 77.928L113.794 79.76L114.106 80.08L116.418 80.072V81H113.45ZM118.676 81L117.788 80.112V77.712L118.676 76.824H120.804L121.7 77.712V79.28H119.02V79.76L119.34 80.08L121.628 80.072V81H118.676ZM119.012 78.472H120.532V77.928L120.212 77.608L119.34 77.616L119.012 77.928V78.472Z" fill="black"/>
<path d="M82.3066 88.035L81.8566 87.585L81.4816 88H80.0116L79.4916 87.475V86.75L80.0616 86.18L80.3066 86.035L79.7366 85.46V84.84L80.2566 84.315H81.1816L81.7066 84.84V85.46L81.2116 85.95L80.9466 86.105L81.8366 87.01L82.3116 86.49L82.5966 86.775L82.1266 87.29L82.5866 87.755L82.3066 88.035ZM80.6666 85.83L80.9166 85.685L81.2666 85.34V84.955L80.9916 84.68H80.4516L80.1766 84.955V85.34L80.6666 85.83ZM80.2016 87.635H81.2666L81.5716 87.3L80.5866 86.315L80.3516 86.45L79.9316 86.87V87.36L80.2016 87.635Z" fill="black"/>
<path d="M28.6545 97.712V97H27.5585L26.6705 96.112V91.992L27.5585 91.104H30.7265L31.6225 91.992V96.112L30.7265 97H29.6385V97.712H28.6545ZM28.2385 95.992H28.6705V95.28H29.6225V95.992H30.0545L30.3745 95.672V92.424L30.0465 92.112H28.2385L27.9185 92.424V95.672L28.2385 95.992ZM33.9506 97L33.0626 96.112V92.824H34.2946L34.2866 95.88L34.5986 96.208H35.1666L35.9906 95.44V92.824H37.2226V97H35.9906V96.416L35.3426 97H33.9506ZM39.4532 97L38.5652 96.112V95.216L39.4532 94.328H41.4612V94.008L41.1412 93.688H39.0932V92.824H41.8052L42.6932 93.712V97H41.4612V96.408L40.8772 97H39.4532ZM40.1092 96.216H40.7012L41.4612 95.456V95.072H40.1092L39.7892 95.384L39.7972 95.904L40.1092 96.216ZM44.2592 97V92.816H45.4912V93.472L46.2192 92.816H47.6832L48.5712 93.712V97H47.3392V93.928L47.0352 93.616H46.4032L45.4912 94.456V97H44.2592ZM50.9902 97L50.1582 96.216V93.656H49.8462V92.824H50.2062L50.5582 91.712H51.3902V92.824H52.0862V93.656H51.3902V95.848L51.6622 96.128H52.2702V97H50.9902ZM53.5483 92.36V91.304H54.7803V92.36H53.5483ZM53.5483 97V92.816H54.7803V97H53.5483ZM57.2558 97L56.4238 96.216V93.656H56.1118V92.824H56.4718L56.8238 91.712H57.6558V92.824H58.3518V93.656H57.6558V95.848L57.9278 96.128H58.5358V97H57.2558ZM60.4219 97L59.5339 96.112V95.216L60.4219 94.328H62.4299V94.008L62.1099 93.688H60.0619V92.824H62.7739L63.6619 93.712V97H62.4299V96.408L61.8459 97H60.4219ZM61.0779 96.216H61.6699L62.4299 95.456V95.072H61.0779L60.7579 95.384L60.7659 95.904L61.0779 96.216ZM66.084 97L65.252 96.216V93.656H64.94V92.824H65.3L65.652 91.712H66.484V92.824H67.18V93.656H66.484V95.848L66.756 96.128H67.364V97H66.084ZM68.642 92.36V91.304H69.874V92.36H68.642ZM68.642 97V92.816H69.874V97H68.642ZM72.6136 97L70.9736 92.824H72.3656L73.3016 95.96H73.5496L74.4856 92.824H75.8776L74.2376 97H72.6136ZM77.7465 97L76.8585 96.112V93.712L77.7465 92.824H79.8745L80.7705 93.712V95.28H78.0905V95.76L78.4105 96.08L80.6985 96.072V97H77.7465ZM78.0825 94.472H79.6025V93.928L79.2825 93.608L78.4105 93.616L78.0825 93.928V94.472ZM84.768 97V91.104H88.4L89.288 91.992V94.168L88.4 95.056H86.016V97H84.768ZM86.016 94.048H87.744L88.064 93.736V92.424L87.744 92.112H86.016V94.048ZM90.5178 97V96.088H92.7418L93.0138 95.816V95.6L92.7178 95.296H91.1338L90.3018 94.504V93.608L91.1258 92.824H93.8058V93.728H91.7578L91.5098 93.992V94.144L91.7978 94.44H93.3978L94.2298 95.224V96.208L93.4058 97H90.5178ZM95.5907 98.496V97.592H97.9507L98.2707 97.272V96.384L97.5827 97H96.1827L95.2947 96.112V92.824H96.5267V95.88L96.8387 96.2H97.4067L98.2707 95.4V92.824H99.4547V97.6L98.5667 98.496H95.5907ZM101.52 97L100.632 96.112V93.712L101.52 92.824H103.728L104.552 93.6V94.4H103.32V93.928L103.008 93.608L102.176 93.616L101.856 93.928L101.864 95.76L102.176 96.08L104.488 96.072V97H101.52ZM105.955 97V91.104H107.187V93.368L107.795 92.816H109.267L110.155 93.712V97H108.923V93.928L108.619 93.616H107.979L107.187 94.344V97H105.955ZM112.512 97L111.624 96.112V93.712L112.512 92.824H114.856L115.752 93.712V96.112L114.856 97H112.512ZM113.168 96.208H114.2L114.52 95.888L114.512 93.928L114.2 93.608L113.168 93.616L112.848 93.928L112.856 95.888L113.168 96.208ZM117.267 97V91.104H118.499V97H117.267ZM120.911 97L120.023 96.112V93.712L120.911 92.824H123.255L124.151 93.712V96.112L123.255 97H120.911ZM121.567 96.208H122.599L122.919 95.888L122.911 93.928L122.599 93.608L121.567 93.616L121.247 93.928L121.255 95.888L121.567 96.208ZM125.866 98.496V97.592H128.218L128.538 97.28V96.424L127.914 97H126.418L125.53 96.112V93.712L126.418 92.816H127.914L128.538 93.4V92.824H129.722V97.6L128.834 98.496H125.866ZM127.738 96.2L128.538 95.448V94.368L127.746 93.624L127.01 93.616L126.738 93.904V95.92L127.01 96.2H127.738ZM131.489 98.496V97.592H133.849L134.169 97.272V96.384L133.481 97H132.081L131.193 96.112V92.824H132.425V95.88L132.737 96.2H133.305L134.169 95.4V92.824H135.353V97.6L134.465 98.496H131.489Z" fill="black"/>
</svg>
