<svg width="162" height="120" viewBox="0 0 162 120" fill="none" xmlns="http://www.w3.org/2000/svg">
<path d="M45 26.9L66.022 18.5L87.044 26.9L66.022 35.3L45 26.9Z" stroke="black" stroke-width="4" stroke-linejoin="round"/>
<path d="M87.044 27.01V36.233M54.556 31.325V43.767C54.556 43.767 59.366 48.5 66.022 48.5C72.679 48.5 77.489 43.767 77.489 43.767V31.325" stroke="black" stroke-width="4" stroke-linecap="round" stroke-linejoin="round"/>
<path d="M73 19.9L94.022 11.5L115.044 19.9L94.022 28.3L73 19.9Z" stroke="black" stroke-width="4" stroke-linejoin="round"/>
<path d="M115.044 20.01V29.233M82.556 24.325V36.767C82.556 36.767 87.366 41.5 94.022 41.5C100.679 41.5 105.489 36.767 105.489 36.767V24.325" stroke="black" stroke-width="4" stroke-linecap="round" stroke-linejoin="round"/>
<path d="M42.51 65.5V59.604H43.878L45.486 63.532L47.094 59.604H48.462V65.5H47.254V61.836L45.806 65.372H45.166L43.718 61.828V65.5H42.51ZM50.7188 65.5L49.8308 64.612V63.716L50.7188 62.828H52.7268V62.508L52.4068 62.188H50.3588V61.324H53.0708L53.9588 62.212V65.5H52.7268V64.908L52.1428 65.5H50.7188ZM51.3748 64.716H51.9668L52.7268 63.956V63.572H51.3748L51.0548 63.884L51.0628 64.404L51.3748 64.716ZM55.5568 65.5V64.588H57.7808L58.0528 64.316V64.1L57.7568 63.796H56.1728L55.3408 63.004V62.108L56.1648 61.324H58.8448V62.228H56.7968L56.5488 62.492V62.644L56.8368 62.94H58.4368L59.2688 63.724V64.708L58.4448 65.5H55.5568ZM61.5449 65.5L60.7129 64.716V62.156H60.4009V61.324H60.7609L61.1129 60.212H61.9449V61.324H62.6409V62.156H61.9449V64.348L62.2169 64.628H62.8249V65.5H61.5449ZM64.895 65.5L64.007 64.612V62.212L64.895 61.324H67.023L67.919 62.212V63.78H65.239V64.26L65.559 64.58L67.847 64.572V65.5H64.895ZM65.231 62.972H66.751V62.428L66.431 62.108L65.559 62.116L65.231 62.428V62.972ZM69.4623 65.5V61.316H70.6943V62.012L71.4223 61.324H72.3103V62.476H71.2383L70.6943 62.996V65.5H69.4623ZM73.3267 61.612L73.6227 59.604H74.8467L74.0787 61.612H73.3267ZM76.3772 65.5V64.588H78.6012L78.8732 64.316V64.1L78.5772 63.796H76.9932L76.1612 63.004V62.108L76.9852 61.324H79.6652V62.228H77.6172L77.3692 62.492V62.644L77.6572 62.94H79.2572L80.0892 63.724V64.708L79.2652 65.5H76.3772ZM83.9633 65.5V59.604H87.5873L88.8193 60.836V64.268L87.5873 65.5H83.9633ZM85.2113 64.492H87.0273L87.5953 63.924V61.172L87.0273 60.612H85.2113V64.492ZM91.0747 65.5L90.1867 64.612V62.212L91.0747 61.324H93.2027L94.0987 62.212V63.78H91.4187V64.26L91.7387 64.58L94.0267 64.572V65.5H91.0747ZM91.4107 62.972H92.9307V62.428L92.6107 62.108L91.7387 62.116L91.4107 62.428V62.972ZM95.882 66.996V66.092H98.234L98.554 65.78V64.924L97.93 65.5H96.434L95.546 64.612V62.212L96.434 61.316H97.93L98.554 61.9V61.324H99.738V66.1L98.85 66.996H95.882ZM97.754 64.7L98.554 63.948V62.868L97.762 62.124L97.026 62.116L96.754 62.404V64.42L97.026 64.7H97.754ZM101.361 65.5V61.316H102.593V62.012L103.321 61.324H104.209V62.476H103.137L102.593 62.996V65.5H101.361ZM106.051 65.5L105.163 64.612V62.212L106.051 61.324H108.179L109.075 62.212V63.78H106.395V64.26L106.715 64.58L109.003 64.572V65.5H106.051ZM106.387 62.972H107.907V62.428L107.587 62.108L106.715 62.116L106.387 62.428V62.972ZM111.411 65.5L110.523 64.612V62.212L111.411 61.324H113.539L114.435 62.212V63.78H111.755V64.26L112.075 64.58L114.363 64.572V65.5H111.411ZM111.747 62.972H113.267V62.428L112.947 62.108L112.075 62.116L111.747 62.428V62.972ZM116.01 65.5V64.588H118.234L118.506 64.316V64.1L118.21 63.796H116.626L115.794 63.004V62.108L116.618 61.324H119.298V62.228H117.25L117.002 62.492V62.644L117.29 62.94H118.89L119.722 63.724V64.708L118.898 65.5H116.01Z" fill="black"/>
<path d="M78.6956 69.6V69.01H79.1356V69.6H78.6956ZM78.6956 72.5V69.885H79.1356V72.5H78.6956ZM80.4505 72.5V69.885H80.8905V70.355L81.3455 69.885H82.3105L82.8305 70.41V72.5H82.3905V70.52L82.1255 70.235H81.4605L80.8905 70.815V72.5H80.4505Z" fill="black"/>
<path d="M41.1444 81.5L40.2564 80.612V76.492L41.1444 75.604H44.0484L44.9044 76.452L44.1124 77.212L43.4964 76.612H41.8244L41.5044 76.924V80.172L41.8244 80.492H43.5604L44.1684 79.892L44.9604 80.652L44.1124 81.5H41.1444ZM47.0512 81.5L46.1632 80.612V78.212L47.0512 77.324H49.3952L50.2912 78.212V80.612L49.3952 81.5H47.0512ZM47.7072 80.708H48.7392L49.0592 80.388L49.0512 78.428L48.7392 78.108L47.7072 78.116L47.3872 78.428L47.3952 80.388L47.7072 80.708ZM51.8061 81.5V77.316H53.0381V77.972L53.7661 77.316H55.2301L55.9341 78.028L56.7261 77.316H58.1901L59.0781 78.212V81.5H57.8461V78.428L57.5421 78.116H56.9101L56.1181 78.836V81.5H54.8861V78.428L54.5821 78.116H53.9501L53.0381 78.956V81.5H51.8061ZM60.642 82.996V77.324H61.874V77.876L62.466 77.316H63.97L64.858 78.212V80.612L63.97 81.5H62.474L61.874 80.948V82.996H60.642ZM62.642 80.7H63.378L63.65 80.42V78.404L63.378 78.116L62.642 78.124L61.874 78.844V79.98L62.642 80.7ZM67.2084 81.5L66.3204 80.612V77.324H67.5524L67.5444 80.38L67.8564 80.708H68.4244L69.2484 79.94V77.324H70.4804V81.5H69.2484V80.916L68.6004 81.5H67.2084ZM72.959 81.5L72.127 80.716V78.156H71.815V77.324H72.175L72.527 76.212H73.359V77.324H74.055V78.156H73.359V80.348L73.631 80.628H74.239V81.5H72.959ZM76.309 81.5L75.421 80.612V78.212L76.309 77.324H78.437L79.333 78.212V79.78H76.653V80.26L76.973 80.58L79.261 80.572V81.5H76.309ZM76.645 78.972H78.165V78.428L77.845 78.108L76.973 78.116L76.645 78.428V78.972ZM80.8764 81.5V77.316H82.1084V78.012L82.8364 77.324H83.7244V78.476H82.6524L82.1084 78.996V81.5H80.8764ZM87.3308 81.5V80.444H90.3308L90.6428 80.124V79.3L90.3308 78.98L88.0028 78.988L87.1148 78.092V76.492L88.0028 75.604H91.5628V76.66H88.6668L88.3548 76.98V77.628L88.6668 77.948H90.9948L91.8828 78.836V80.612L90.9948 81.5H87.3308ZM94.1372 81.5L93.2492 80.612V78.212L94.1372 77.324H96.3452L97.1692 78.1V78.9H95.9372V78.428L95.6252 78.108L94.7932 78.116L94.4732 78.428L94.4812 80.26L94.7932 80.58L97.1052 80.572V81.5H94.1372ZM98.5717 76.86V75.804H99.8037V76.86H98.5717ZM98.5717 81.5V77.316H99.8037V81.5H98.5717ZM102.215 81.5L101.327 80.612V78.212L102.215 77.324H104.343L105.239 78.212V79.78H102.559V80.26L102.879 80.58L105.167 80.572V81.5H102.215ZM102.551 78.972H104.071V78.428L103.751 78.108L102.879 78.116L102.551 78.428V78.972ZM106.783 81.5V77.316H108.015V77.972L108.743 77.316H110.207L111.095 78.212V81.5H109.863V78.428L109.559 78.116H108.927L108.015 78.956V81.5H106.783ZM113.45 81.5L112.562 80.612V78.212L113.45 77.324H115.658L116.482 78.1V78.9H115.25V78.428L114.938 78.108L114.106 78.116L113.786 78.428L113.794 80.26L114.106 80.58L116.418 80.572V81.5H113.45ZM118.676 81.5L117.788 80.612V78.212L118.676 77.324H120.804L121.7 78.212V79.78H119.02V80.26L119.34 80.58L121.628 80.572V81.5H118.676ZM119.012 78.972H120.532V78.428L120.212 78.108L119.34 78.116L119.012 78.428V78.972Z" fill="black"/>
<path d="M82.3066 88.535L81.8566 88.085L81.4816 88.5H80.0116L79.4916 87.975V87.25L80.0616 86.68L80.3066 86.535L79.7366 85.96V85.34L80.2566 84.815H81.1816L81.7066 85.34V85.96L81.2116 86.45L80.9466 86.605L81.8366 87.51L82.3116 86.99L82.5966 87.275L82.1266 87.79L82.5866 88.255L82.3066 88.535ZM80.6666 86.33L80.9166 86.185L81.2666 85.84V85.455L80.9916 85.18H80.4516L80.1766 85.455V85.84L80.6666 86.33ZM80.2016 88.135H81.2666L81.5716 87.8L80.5866 86.815L80.3516 86.95L79.9316 87.37V87.86L80.2016 88.135Z" fill="black"/>
<path d="M28.6545 98.212V97.5H27.5585L26.6705 96.612V92.492L27.5585 91.604H30.7265L31.6225 92.492V96.612L30.7265 97.5H29.6385V98.212H28.6545ZM28.2385 96.492H28.6705V95.78H29.6225V96.492H30.0545L30.3745 96.172V92.924L30.0465 92.612H28.2385L27.9185 92.924V96.172L28.2385 96.492ZM33.9506 97.5L33.0626 96.612V93.324H34.2946L34.2866 96.38L34.5986 96.708H35.1666L35.9906 95.94V93.324H37.2226V97.5H35.9906V96.916L35.3426 97.5H33.9506ZM39.4532 97.5L38.5652 96.612V95.716L39.4532 94.828H41.4612V94.508L41.1412 94.188H39.0932V93.324H41.8052L42.6932 94.212V97.5H41.4612V96.908L40.8772 97.5H39.4532ZM40.1092 96.716H40.7012L41.4612 95.956V95.572H40.1092L39.7892 95.884L39.7972 96.404L40.1092 96.716ZM44.2592 97.5V93.316H45.4912V93.972L46.2192 93.316H47.6832L48.5712 94.212V97.5H47.3392V94.428L47.0352 94.116H46.4032L45.4912 94.956V97.5H44.2592ZM50.9902 97.5L50.1582 96.716V94.156H49.8462V93.324H50.2062L50.5582 92.212H51.3902V93.324H52.0862V94.156H51.3902V96.348L51.6622 96.628H52.2702V97.5H50.9902ZM53.5483 92.86V91.804H54.7803V92.86H53.5483ZM53.5483 97.5V93.316H54.7803V97.5H53.5483ZM57.2558 97.5L56.4238 96.716V94.156H56.1118V93.324H56.4718L56.8238 92.212H57.6558V93.324H58.3518V94.156H57.6558V96.348L57.9278 96.628H58.5358V97.5H57.2558ZM60.4219 97.5L59.5339 96.612V95.716L60.4219 94.828H62.4299V94.508L62.1099 94.188H60.0619V93.324H62.7739L63.6619 94.212V97.5H62.4299V96.908L61.8459 97.5H60.4219ZM61.0779 96.716H61.6699L62.4299 95.956V95.572H61.0779L60.7579 95.884L60.7659 96.404L61.0779 96.716ZM66.084 97.5L65.252 96.716V94.156H64.94V93.324H65.3L65.652 92.212H66.484V93.324H67.18V94.156H66.484V96.348L66.756 96.628H67.364V97.5H66.084ZM68.642 92.86V91.804H69.874V92.86H68.642ZM68.642 97.5V93.316H69.874V97.5H68.642ZM72.6136 97.5L70.9736 93.324H72.3656L73.3016 96.46H73.5496L74.4856 93.324H75.8776L74.2376 97.5H72.6136ZM77.7465 97.5L76.8585 96.612V94.212L77.7465 93.324H79.8745L80.7705 94.212V95.78H78.0905V96.26L78.4105 96.58L80.6985 96.572V97.5H77.7465ZM78.0825 94.972H79.6025V94.428L79.2825 94.108L78.4105 94.116L78.0825 94.428V94.972ZM84.768 97.5V91.604H88.4L89.288 92.492V94.668L88.4 95.556H86.016V97.5H84.768ZM86.016 94.548H87.744L88.064 94.236V92.924L87.744 92.612H86.016V94.548ZM90.5178 97.5V96.588H92.7418L93.0138 96.316V96.1L92.7178 95.796H91.1338L90.3018 95.004V94.108L91.1258 93.324H93.8058V94.228H91.7578L91.5098 94.492V94.644L91.7978 94.94H93.3978L94.2298 95.724V96.708L93.4058 97.5H90.5178ZM95.5907 98.996V98.092H97.9507L98.2707 97.772V96.884L97.5827 97.5H96.1827L95.2947 96.612V93.324H96.5267V96.38L96.8387 96.7H97.4067L98.2707 95.9V93.324H99.4547V98.1L98.5667 98.996H95.5907ZM101.52 97.5L100.632 96.612V94.212L101.52 93.324H103.728L104.552 94.1V94.9H103.32V94.428L103.008 94.108L102.176 94.116L101.856 94.428L101.864 96.26L102.176 96.58L104.488 96.572V97.5H101.52ZM105.955 97.5V91.604H107.187V93.868L107.795 93.316H109.267L110.155 94.212V97.5H108.923V94.428L108.619 94.116H107.979L107.187 94.844V97.5H105.955ZM112.512 97.5L111.624 96.612V94.212L112.512 93.324H114.856L115.752 94.212V96.612L114.856 97.5H112.512ZM113.168 96.708H114.2L114.52 96.388L114.512 94.428L114.2 94.108L113.168 94.116L112.848 94.428L112.856 96.388L113.168 96.708ZM117.267 97.5V91.604H118.499V97.5H117.267ZM120.911 97.5L120.023 96.612V94.212L120.911 93.324H123.255L124.151 94.212V96.612L123.255 97.5H120.911ZM121.567 96.708H122.599L122.919 96.388L122.911 94.428L122.599 94.108L121.567 94.116L121.247 94.428L121.255 96.388L121.567 96.708ZM125.866 98.996V98.092H128.218L128.538 97.78V96.924L127.914 97.5H126.418L125.53 96.612V94.212L126.418 93.316H127.914L128.538 93.9V93.324H129.722V98.1L128.834 98.996H125.866ZM127.738 96.7L128.538 95.948V94.868L127.746 94.124L127.01 94.116L126.738 94.404V96.42L127.01 96.7H127.738ZM131.489 98.996V98.092H133.849L134.169 97.772V96.884L133.481 97.5H132.081L131.193 96.612V93.324H132.425V96.38L132.737 96.7H133.305L134.169 95.9V93.324H135.353V98.1L134.465 98.996H131.489Z" fill="black"/>
</svg>
