<svg width="16" height="17" viewBox="0 0 16 17" fill="none" xmlns="http://www.w3.org/2000/svg">
<g clip-path="url(#clip0_179_151)">
<path d="M10 14.7289V12.0622C10.0928 11.2271 9.85329 10.389 9.33334 9.7289C11.3333 9.7289 13.3333 8.39557 13.3333 6.06224C13.3867 5.2289 13.1533 4.4089 12.6667 3.7289C12.8533 2.96224 12.8533 2.16224 12.6667 1.39557C12.6667 1.39557 12 1.39557 10.6667 2.39557C8.90667 2.06224 7.09334 2.06224 5.33334 2.39557C4 1.39557 3.33334 1.39557 3.33334 1.39557C3.13334 2.16224 3.13334 2.96224 3.33334 3.7289C2.84792 4.40616 2.61232 5.23076 2.66667 6.06224C2.66667 8.39557 4.66667 9.7289 6.66667 9.7289C6.40667 10.0556 6.21334 10.4289 6.1 10.8289C5.98667 11.2289 5.95334 11.6489 6 12.0622V14.7289" stroke="black" stroke-width="2" stroke-linecap="round" stroke-linejoin="round"/>
<path d="M5.99998 12.0622C2.99331 13.3956 2.66665 10.7289 1.33331 10.7289" stroke="black" stroke-width="2" stroke-linecap="round" stroke-linejoin="round"/>
</g>
<defs>
<clipPath id="clip0_179_151">
<rect width="16" height="16" fill="white" transform="translate(0 0.0622406)"/>
</clipPath>
</defs>
</svg>
