<svg width="16" height="17" viewBox="0 0 16 17" fill="none" xmlns="http://www.w3.org/2000/svg">
<mask id="mask0_1_58" style="mask-type:alpha" maskUnits="userSpaceOnUse" x="0" y="0" width="16" height="17">
<rect y="0.0166016" width="16" height="16" fill="#D9D9D9"/>
</mask>
<g mask="url(#mask0_1_58)">
<path d="M2.66652 13.3503C2.29986 13.3503 1.98597 13.2197 1.72486 12.9586C1.46375 12.6975 1.33319 12.3836 1.33319 12.0169V4.01693C1.33319 3.65026 1.46375 3.33637 1.72486 3.07526C1.98597 2.81415 2.29986 2.68359 2.66652 2.68359H13.3332C13.6999 2.68359 14.0137 2.81415 14.2749 3.07526C14.536 3.33637 14.6665 3.65026 14.6665 4.01693V12.0169C14.6665 12.3836 14.536 12.6975 14.2749 12.9586C14.0137 13.2197 13.6999 13.3503 13.3332 13.3503H2.66652ZM7.99986 8.68359L2.66652 5.35026V12.0169H13.3332V5.35026L7.99986 8.68359ZM7.99986 7.35026L13.3332 4.01693H2.66652L7.99986 7.35026ZM2.66652 5.35026V4.01693V12.0169V5.35026Z" fill="#1C1B1F"/>
</g>
</svg>
