<?xml version="1.0" encoding="UTF-8"?><svg id="Layer_1" xmlns="http://www.w3.org/2000/svg" viewBox="0 0 17.42 16.18"><rect x=".71" y=".18" width="16" height="16" fill="none" stroke-width="0"/><path d="M1.71,16.18c-.55,0-1-.45-1-1v-7.37c0-.55.45-1,1-1s1,.45,1,1v7.37c0,.55-.45,1-1,1Z" fill="#676767" stroke-width="0"/><path d="M15.71,16.18c-.55,0-1-.45-1-1v-7.37c0-.55.45-1,1-1s1,.45,1,1v7.37c0,.55-.45,1-1,1Z" fill="#676767" stroke-width="0"/><polygon points="7.46 12.51 7.46 4.35 1.26 7.96 0 5.8 9.96 0 9.96 8.16 16.16 4.55 17.42 6.71 7.46 12.51" fill="#010101" stroke-width="0"/><path d="M15.71,16.18c-.14,0-.29-.03-.42-.09l-6.58-3.07-6.58,3.07c-.5.23-1.1.02-1.33-.48-.23-.5-.02-1.09.48-1.33l7-3.27c.27-.12.58-.12.85,0l7,3.27c.5.23.72.83.48,1.33-.17.36-.53.58-.91.58Z" fill="#676767" stroke-width="0"/></svg>